<svg width="28" height="29" viewBox="0 0 28 29" fill="none" xmlns="http://www.w3.org/2000/svg">
<path d="M14.0001 2.59247C20.4444 2.59247 25.6685 7.81663 25.6685 14.261C25.6685 20.7053 20.4444 25.9294 14.0001 25.9294C7.5557 25.9294 2.33154 20.7053 2.33154 14.261C2.33154 7.81663 7.5557 2.59247 14.0001 2.59247ZM14.0001 4.34247C8.5222 4.34247 4.08154 8.78313 4.08154 14.261C4.08154 19.7388 8.5222 24.1794 14.0001 24.1794C19.4778 24.1794 23.9185 19.7388 23.9185 14.261C23.9185 8.78313 19.4778 4.34247 14.0001 4.34247ZM13.9957 12.5098C14.4387 12.5096 14.8051 12.8385 14.8633 13.2655L14.8713 13.3842L14.8755 19.8028C14.8759 20.286 14.4843 20.678 14.0011 20.6783C13.5581 20.6786 13.1918 20.3497 13.1336 19.9227L13.1255 19.8039L13.1213 13.3854C13.121 12.9022 13.5125 12.5102 13.9957 12.5098ZM14.0005 8.42909C14.6441 8.42909 15.1657 8.95073 15.1657 9.59419C15.1657 10.2377 14.6441 10.7593 14.0005 10.7593C13.3571 10.7593 12.8354 10.2377 12.8354 9.59419C12.8354 8.95073 13.3571 8.42909 14.0005 8.42909Z" fill="#2CA6DE"/>
</svg>
