<svg width="24" height="26" viewBox="0 0 24 26" fill="none" xmlns="http://www.w3.org/2000/svg">
<path d="M4.83333 10.9391C6.75333 14.9106 9.84 18.1593 13.62 20.1802L16.5533 17.0858C16.92 16.6999 17.4467 16.5876 17.9067 16.742C19.4 17.2612 21.0067 17.5419 22.6667 17.5419C23.4067 17.5419 24 18.1664 24 18.9452V23.8569C24 24.6358 23.4067 25.2603 22.6667 25.2603C10.1467 25.2603 0 14.5808 0 1.40335C0 0.62449 0.6 0 1.33333 0H6C6.74 0 7.33333 0.62449 7.33333 1.40335C7.33333 3.15052 7.6 4.84155 8.09333 6.41331C8.24 6.89746 8.13333 7.45178 7.76667 7.83771L4.83333 10.9391Z" fill="#2CA6DE"/>
</svg>
